<svg xmlns="http://www.w3.org/2000/svg" width="178.96" height="44" viewBox="0 0 178.96 44">
  <defs>
    <style>
      .cls-1 {
        fill: #ff6f00;
      }
    </style>
  </defs>
  <g id="ES">
    <path class="cls-1" d="M76.76,27.78h3.87c3.15,0,5,1.23,5,3.83s-1.86,3.83-5,3.83H78.86v4.14h-2.1Zm3.83,5.92c2.13,0,2.87-.65,2.87-2.09s-.74-2.09-2.87-2.09H78.86V33.7Z"/>
    <path class="cls-1" d="M93,38.36a4,4,0,0,1-3.23,1.43c-1.86,0-3-1-3-2.62,0-2.24,2.2-2.7,3.7-2.83l2.15-.19v-.26c0-1.43-.23-2.24-1.73-2.24-1.35,0-1.82.66-1.82,1.82H87.21c0-2.79,2.17-3.38,4-3.38,2.69,0,3.53,1.33,3.53,3.59v4c0,.36.15.55.53.55A1.94,1.94,0,0,0,96,38v1.43a3.1,3.1,0,0,1-1.46.34c-1.24,0-1.5-.69-1.5-1.31Zm-.34-3L91,35.54c-1.31.15-2.09.6-2.09,1.55,0,.76.5,1.22,1.54,1.22a3.52,3.52,0,0,0,2.3-.88Z"/>
    <path class="cls-1" d="M98.73,25.67H101l-2.58,2.85h-1ZM97.44,30.3h2v9.28h-2Z"/>
    <path class="cls-1" d="M103.46,36.58a2,2,0,0,0,2.2,1.75c1,0,1.78-.44,1.78-1.26,0-1-1.1-1.15-2.79-1.63-1.33-.38-2.79-.91-2.79-2.69,0-1.94,1.79-2.66,3.57-2.66,2,0,3.57.95,3.7,2.92h-2a1.58,1.58,0,0,0-1.77-1.48c-.85,0-1.53.38-1.53,1.1,0,1,1.21,1.07,2.86,1.54,1.35.38,2.75,1,2.75,2.77,0,2.13-2,2.85-3.83,2.85-2.28,0-4-1-4.14-3.21Z"/>
    <path class="cls-1" d="M119.45,36.52c-.36,2.58-2.56,3.27-4.19,3.27-2.22,0-4.33-1.24-4.33-4.86s2.24-4.84,4.27-4.84,4.29,1.08,4.29,4.82v.32h-6.56c0,2,.85,3,2.39,3a2,2,0,0,0,2.16-1.69Zm-2-2.5c-.13-1.56-.93-2.39-2.24-2.39S113.1,32.46,113,34Z"/>
    <path class="cls-1" d="M122.87,36.58a1.94,1.94,0,0,0,2.2,1.75c1,0,1.78-.44,1.78-1.26,0-1-1.1-1.15-2.8-1.63-1.33-.38-2.79-.91-2.79-2.69,0-1.94,1.8-2.66,3.58-2.66,2,0,3.57.95,3.7,2.92h-2a1.58,1.58,0,0,0-1.78-1.48c-.84,0-1.52.38-1.52,1.1,0,1,1.21,1.07,2.86,1.54,1.35.38,2.74,1,2.74,2.77,0,2.13-1.94,2.85-3.82,2.85-2.29,0-4-1-4.15-3.21Z"/>
    <path class="cls-1" d="M135.06,27.78h4.51c2.75,0,4.27,1.14,4.27,3.24a2.41,2.41,0,0,1-1.57,2.45,2.65,2.65,0,0,1,2,2.75c0,2.18-1.58,3.36-4.44,3.36h-4.82Zm4.34,5c1.75,0,2.28-.59,2.28-1.65s-.53-1.63-2.28-1.63h-2.24v3.28Zm.27,5.14c1.93,0,2.5-.64,2.5-1.76s-.57-1.77-2.5-1.77h-2.51v3.53Z"/>
    <path class="cls-1" d="M152.1,38.35a4,4,0,0,1-3.24,1.44c-1.86,0-3-1-3-2.62,0-2.24,2.2-2.71,3.7-2.83l2.16-.19v-.26c0-1.44-.23-2.24-1.73-2.24s-1.82.66-1.82,1.82h-2c.05-2.79,2.18-3.38,4-3.38,2.68,0,3.53,1.33,3.53,3.59v4c0,.35.15.55.53.55a1.79,1.79,0,0,0,.76-.2v1.44a3.17,3.17,0,0,1-1.46.34c-1.25,0-1.5-.7-1.5-1.31Zm-.34-3-1.75.19c-1.31.15-2.1.59-2.1,1.54,0,.77.51,1.23,1.55,1.23a3.48,3.48,0,0,0,2.3-.89Z"/>
    <path class="cls-1" d="M154.66,42.16a3,3,0,0,0,.77.13c.86,0,1.12-.55,1.12-1.46V30.3h2V41c0,1.74-.79,3-2.79,3a2.77,2.77,0,0,1-1.13-.19Zm1.76-16.58h2.28v2h-2.28Z"/>
    <path class="cls-1" d="M160.63,34.93c0-3.79,2.37-4.84,4.46-4.84s4.46,1.05,4.46,4.84-2.37,4.86-4.46,4.86S160.63,38.71,160.63,34.93Zm6.87,0c0-2.12-.83-3.15-2.41-3.15s-2.41,1-2.41,3.15.82,3.17,2.41,3.17S167.5,37,167.5,34.93Z"/>
    <path class="cls-1" d="M173,36.58a2,2,0,0,0,2.2,1.75c1,0,1.78-.44,1.78-1.27,0-1-1.1-1.14-2.79-1.62-1.33-.39-2.79-.91-2.79-2.69,0-1.94,1.79-2.66,3.57-2.66,2.05,0,3.57.95,3.7,2.91h-2a1.58,1.58,0,0,0-1.77-1.48c-.85,0-1.53.38-1.53,1.1,0,1,1.21,1.08,2.86,1.55,1.35.38,2.75,1,2.75,2.77,0,2.13-2,2.85-3.83,2.85-2.28,0-4-1.06-4.14-3.21Z"/>
  </g>
  <g id="Laag_2" data-name="Laag 2">
    <path class="cls-1" d="M42.38,30.26v-.73c3.41-.93,6.28-3.43,6.28-9.94V8.74A24.83,24.83,0,0,1,49.79.65,11.78,11.78,0,0,0,45.63,0c-4,0-7.06,2-7.12,6.94V39.58H67.44V30.26Z"/>
    <path class="cls-1" d="M29.73,0a11.21,11.21,0,0,0-4.06.64,23,23,0,0,1,1,7.45V18.81A13.24,13.24,0,0,0,29,27l-.8.52L11.05.58H0v39H10V23.2a22.42,22.42,0,0,0-1.17-7.86l.71-.42c1,1.9,1.84,3.36,2.82,4.84L25.27,39.58H36.8V7.1C36.79,2.12,33.78,0,29.73,0Z"/>
  </g>
</svg>
